<svg height="512" viewBox="0 0 38 60" width="512" xmlns="http://www.w3.org/2000/svg"><g id="Page-1" fill="none" fill-rule="evenodd"><g id="039---Medal" fill-rule="nonzero"><path id="Shape" d="m30.11 2.17v23.68c.0005507.8400268-.3513386 1.641754-.97 2.21l-4.02 3.68-3.99 3.65-.02.02c-.9697095.8559565-2.3763549 1.00064-3.5.36-.1791016-.101711-.346734-.2224062-.5-.36l-.02-.02-3.99-3.65-4.02-3.68c-.61869209-.568224-.97058766-1.3699654-.97-2.21v-23.68c.0016474-.55160093.44839907-.9983526 1-1h20c.5516009.0016474.9983526.44839907 1 1z" fill="#7facfa"/><path id="Shape" d="m27.11 2.17v23.68c.0005507.8400268-.3513386 1.641754-.97 2.21l-4.02 3.68-3.99 3.65-.02.02c-.1532864.1375684-.3209159.2582617-.5.36-.1791016-.101711-.346734-.2224062-.5-.36l-.02-.02-3.99-3.65-4.02-3.68c-.61869209-.568224-.97058766-1.3699654-.97-2.21v-23.68c.0016474-.55160093.44839907-.9983526 1-1h17c.5516009.0016474.9983526.44839907 1 1z" fill="#a4c2f7"/><path id="Shape" d="m25.1111 31.7167.01.02-3.99 3.65-.02.02c-1.1420622 1.0100063-2.8579378 1.0100063-4 0l-.02-.02-3.99-3.65.01-.02v-30.55h12z" fill="#e8edfc"/><path id="Shape" d="m20.0553 28.6291 3.8434 7.7337c.1270159.2547042.3710399.4307694.6528.471l8.5941 1.24c.3255491.045086.5968771.2718922.6989804.584286.1021034.3123937.0171003.6556639-.2189804.884314l-6.2187 6.02c-.2041359.1971031-.2975157.4824467-.2494.7621l1.468 8.5c.0539079.3245017-.0807328.651522-.3474909.8439992-.2667581.1924773-.6195487.2171591-.9105091.0637008l-7.6868-4.0132c-.2527973-.1318942-.5541027-.1318942-.8069 0l-7.6868 4.0132c-.2909604.1534583-.643751.1287765-.9105091-.0637008-.2667581-.1924772-.40139878-.5194975-.3474909-.8439992l1.4681-8.5c.0480617-.2796494-.0453099-.5649682-.2494-.7621l-6.2188-6.02c-.23552687-.2290032-.32002128-.572176-.21774117-.8843525s.37346525-.538816.69884117-.5840475l8.5941-1.24c.2817601-.0402306.5257841-.2162958.6528-.471l3.8431-7.7339c.1475695-.2941914.4485218-.4799225.77765-.4799225s.6300805.1857311.77765.4799225z" fill="#cad9fc"/><path id="Shape" d="m25.6678 36.9933c-4.02 2.1-11.3 7.25-11.44 17.15l-3.04 1.59c-.2916663.1522514-.644303.1267487-.9110272-.0658854-.2667242-.1926342-.40180316-.5193706-.3489728-.8441146l1.47-8.5c.0463806-.279005-.0470433-.5630139-.25-.76l-6.22-6.02c-.23518347-.2292362-.31959211-.5722376-.21764957-.8844366s.37250431-.5392916.69764957-.5855634l8.6-1.24c.2796604-.0429765.5215602-.2178887.65-.47l3.84-7.73c.1486229-.294332.4502726-.4799391.78-.4799391s.6313771.1856071.78.4799391l3.84 7.73c.1284398.2521113.3703396.4270235.65.47z" fill="#e8edfc"/><circle id="Oval" cx="4" cy="38" fill="#e8edfc" r="3"/><circle id="Oval" cx="34" cy="38" fill="#e8edfc" r="3"/><circle id="Oval" cx="29" cy="56" fill="#e8edfc" r="3"/><circle id="Oval" cx="9" cy="56" fill="#e8edfc" r="3"/><circle id="Oval" cx="3" cy="37" fill="#e8edfc" r="1"/><circle id="Oval" cx="33" cy="37" fill="#e8edfc" r="1"/><circle id="Oval" cx="8" cy="55" fill="#e8edfc" r="1"/><circle id="Oval" cx="28" cy="55" fill="#e8edfc" r="1"/><path id="Shape" d="m25.67 36.99c-.2.11-.41.22-.63.34l-3.49-.5c-.2823466-.0363114-.527048-.2132493-.65-.47l-3.12-6.28.72-1.45c.1486229-.294332.4502726-.4799391.78-.4799391s.6313771.1856071.78.4799391l3.84 7.73c.1284398.2521113.3703396.4270235.65.47z" fill="#cad9fc"/><circle id="Oval" cx="19" cy="27" fill="#e8edfc" r="3"/><circle id="Oval" cx="18" cy="26" fill="#e8edfc" r="1"/><path id="Rectangle-path" d="m14 1.167h2.111v1h-2.111z" fill="#fff"/><path id="Shape" d="m14.015 36.8818.3323-.048c.2640625-.0797003.4938404-.2455121.6527-.471.6471-1.3019 3.0107-2.875 1.9379-3.8563l-.8379-.7665-3.126-3.6754c-.6212873-.5687415-.9750995-1.3723027-.9751-2.2146v-23.68c.0016474-.55160093.4483991-.9983526 1-1h-3.8889c-.55162365.00159279-.99840721.44837635-1 1v23.6867c-.00002909.8379799.35193091 1.637437.97 2.2033l4.02 3.68 2.65 2.4239-1.0929 2.1989c-.0401551.0626337-.0885184.1196069-.1438.1694-.1458267.1361522-.3194521.2390514-.5089.3016l-.3323.048-3.73.5378c.02446494.140895.03883484.2833574.043.4263z" fill="#fff"/><path id="Shape" d="m4 38c.00244338-1.0674347.5742641-2.0524531 1.5-2.5839-.45411308-.2695942-.97189824-.4132278-1.5-.4161-1.65685425 0-3 1.3431458-3 3s1.34314575 3 3 3c.52810176-.0028722 1.04588692-.1465058 1.5-.4161-.9257359-.5314469-1.49755662-1.5164653-1.5-2.5839z" fill="#fff"/><path id="Shape" d="m10.1993 53.2529c-.71094851-.3116909-1.51480523-.3367689-2.2438-.07-.87883771.3128468-1.55641667 1.0251401-1.825 1.9185-.28272063.9122179-.11547198 1.9044892.45064467 2.6736344.56611666.7691453 1.46383119 1.2237692 2.41885533 1.2249656.52810176-.0028722 1.0458869-.1465058 1.5-.4161l-.0267-.0157c-1.18601054-.7615025-1.62967211-2.2804462-1.04-3.5606z" fill="#fff"/><path id="Shape" d="m11.791 55.92c-.4601121.0002713-.8610283-.3134514-.9713949-.7601308-.1103667-.4466794.0983035-.9110202.5055949-1.1250692l7.25-3.81c.2912945-.1533029.6394055-.1533029.9307 0l7.18 3.78c.488772.2572542.6764542.862028.4192 1.3508s-.862028.6764542-1.3508.4192l-6.7143-3.5348-6.7851 3.5655c-.1430246.0753146-.3022574.1146165-.4639.1145z" fill="#428dff"/><path id="Shape" d="m31.0107 38.87c-.0483402.0000186-.0966232-.0033227-.1445-.01l-7.33-1.06c-.3261171-.0474545-.6080229-.2522933-.7539-.5478l-3.4785-7.0591c-.2371143-.4939155-.0326383-1.0866671.45857-1.3293399s1.0862296-.0448987 1.33443.4435399l3.2471 6.5884 6.81.9849c.5198931.0740763.893918.5376754.8563834 1.0614762-.0375347.5238008-.4738401.929333-.9989834.9285238z" fill="#428dff"/><path id="Shape" d="m6.9893 38.89c-.5253404.0013425-.9621513-.4040434-.99996209-.9280231-.0378108-.5239796.33627168-.9878803.85636209-1.0619769l6.88-1.0039 3.248-6.57c.1583937-.3202886.4756274-.5317455.8322024-.5547168.3565749-.0229714.6983188.1460327.8965.44335s.2226913.6777782.0642976.9980668l-3.48 7.04c-.1457155.2945419-.4267548.498771-.7519.5464l-7.3994 1.08c-.04839217.0069695-.09720903.0105781-.1461.0108z" fill="#428dff"/><path id="Shape" d="m27.8594 54.23c-.4867529-.0003131-.9024709-.3512916-.9844-.8311l-1.3008-7.58c-.0555395-.3243147.051784-.6552194.2871-.8852l5.5-5.36c.3956016-.3856328 1.0289172-.3775516 1.41455.01805s.3775516 1.0289172-.01805 1.41455l-5.124 4.9927 1.2119 7.062c.0450368.2613603-.0157121.5299022-.1688558.7464306s-.3861094.3632668-.6475442.4078694c-.0560813.0099595-.1129415.0148791-.1699.0147z" fill="#428dff"/><path id="Shape" d="m10.2109 54.26c-.057288.0001329-.1144762-.0047862-.1709-.0147-.54393128-.0939197-.90889546-.6107956-.8154-1.1548l1.22-7.0918-5.1621-5.0327c-.2594364-.2486618-.36549952-.6174084-.27782608-.9659099.08767343-.3485015.35560022-.6231625.70181848-.7194582s.71748355.000583.9725076.2537681l5.5391 5.4c.2353915.2299337.3427281.5608789.2871.8852l-1.31 7.61c-.082793.4791681-.4980327.8294831-.9843.8304z" fill="#428dff"/><path id="Shape" d="m9 2v13 11h-2v-11-13z" fill="#fff"/><g fill="#428dff"><path id="Shape" d="m8 7c.55162365-.00159279.99840721-.44837635 1-1v-4h-2v4c.0016474.55160093.44839907.9983526 1 1z"/><path id="Shape" d="m7 26h2v-12c0-.5522847-.44771525-1-1-1s-1 .4477153-1 1z"/><path id="Shape" d="m9 10c-.0039589-.26471084-.10750224-.51821349-.29-.71l-.15-.12c-.05575598-.03782802-.11628399-.06809203-.18-.09-.05666008-.02889327-.11733597-.04911856-.18-.06-.06612874-.01124816-.13295338-.01793062-.2-.02-.26476698.00368349-.51836621.10726627-.71.29-.24271017.23375304-.34919273.57529402-.28232838.9055634.06686436.3302694.29780924.6034969.61232838.7244366.12022231.051241.24932274.07842.38.08.26603534.0027011.52196165-.1017882.71008674-.2899133s.29261434-.4440514.28991326-.7100867z"/><path id="Shape" d="m15.63 35.31c-.2497687.0002488-.4905518-.093167-.6748-.2618l-6.6612-6.1015c-.82357308-.7586689-1.29269116-1.8269458-1.294-2.9467 0-.5522847.44771525-1 1-1s1 .4477153 1 1c.00024808.5599316.23466154 1.094242.6465 1.4736l6.6582 6.0982c.3046463.2783919.4069857.7153343.2576521 1.1000561-.1493337.3847218-.5196641.6381926-.9323521.6381439z"/><path id="Shape" d="m22.42 35.26c-.413042.0001751-.7836913-.2536113-.9328976-.6387622-.1492064-.3851508-.0462644-.8224052.2590976-1.1005378l6.6084-6.0474c.4112637-.379546.6452414-.9136636.6454-1.4733v-24h-20c0 .55228475-.44771525 1-1 1s-1-.44771525-1-1c.00126747-1.10404407.89595593-1.99873253 2-2h20c1.1040441.00126747 1.9987325.89595593 2 2v24c-.0012361 1.1194472-.4699596 2.1875061-1.293 2.9463l-6.6132 6.0527c-.1841093.1681174-.4244817.2612269-.6738.261z"/><path id="Shape" d="m25 32.87c-.5522847 0-1-.4477153-1-1v-29.87h-10v29.87c0 .5522847-.4477153 1-1 1s-1-.4477153-1-1v-30.87c0-.55228475.4477153-1 1-1h12c.5522847 0 1 .44771525 1 1v30.87c0 .5522847-.4477153 1-1 1z"/><path id="Shape" d="m19 31c-2.209139 0-4-1.790861-4-4s1.790861-4 4-4 4 1.790861 4 4c-.0023149 2.2081794-1.7918206 3.9976851-4 4zm0-6c-1.1045695 0-2 .8954305-2 2s.8954305 2 2 2 2-.8954305 2-2c-.0012675-1.1040441-.8959559-1.9987325-2-2z"/><path id="Shape" d="m4 42c-2.209139 0-4-1.790861-4-4s1.790861-4 4-4 4 1.790861 4 4c-.00231494 2.2081794-1.79182059 3.9976851-4 4zm0-6c-1.1045695 0-2 .8954305-2 2s.8954305 2 2 2 2-.8954305 2-2c-.00126747-1.1040441-.89595593-1.9987325-2-2z"/><path id="Shape" d="m34 42c-2.209139 0-4-1.790861-4-4s1.790861-4 4-4 4 1.790861 4 4c-.0023149 2.2081794-1.7918206 3.9976851-4 4zm0-6c-1.1045695 0-2 .8954305-2 2s.8954305 2 2 2 2-.8954305 2-2c-.0012675-1.1040441-.8959559-1.9987325-2-2z"/><path id="Shape" d="m29 60c-2.209139 0-4-1.790861-4-4s1.790861-4 4-4 4 1.790861 4 4c-.0023149 2.2081794-1.7918206 3.9976851-4 4zm0-6c-1.1045695 0-2 .8954305-2 2s.8954305 2 2 2 2-.8954305 2-2c-.0012675-1.1040441-.8959559-1.9987325-2-2z"/><path id="Shape" d="m9 60c-2.209139 0-4-1.790861-4-4s1.790861-4 4-4 4 1.790861 4 4c-.0023149 2.2081794-1.7918206 3.9976851-4 4zm0-6c-1.1045695 0-2 .8954305-2 2s.8954305 2 2 2 2-.8954305 2-2c-.0012675-1.1040441-.8959559-1.9987325-2-2z"/></g></g></g></svg>