<?xml version="1.0" encoding="iso-8859-1"?>
<!-- Generator: Adobe Illustrator 19.0.0, SVG Export Plug-In . SVG Version: 6.00 Build 0)  -->
<svg version="1.1" id="Capa_1" xmlns="http://www.w3.org/2000/svg" xmlns:xlink="http://www.w3.org/1999/xlink" x="0px" y="0px"
	 viewBox="0 0 512 512" style="enable-background:new 0 0 512 512;" xml:space="preserve">
<g>
	<polygon style="fill:#A4C2F7;" points="328.533,25.6 294.4,25.6 294.4,51.2 217.6,51.2 217.6,25.6 183.467,25.6 72.533,25.6 
		72.533,503.467 456.533,503.467 456.533,25.6 	"/>
	<rect x="217.6" y="8.533" style="fill:#7FACFA;" width="76.8" height="42.667"/>
	<polygon style="fill:#A4C2F7;" points="294.4,25.6 294.4,51.2 217.6,51.2 217.6,25.6 157.867,25.6 157.867,76.8 354.133,76.8 
		354.133,25.6 	"/>
	
		<linearGradient id="SVGID_1_" gradientUnits="userSpaceOnUse" x1="-48.9148" y1="652.6292" x2="-47.805" y2="651.7192" gradientTransform="matrix(349.8667 0 0 -426.6667 17175.5273 278525.5625)">
		<stop  offset="0" style="stop-color:#D4E1F4"/>
		<stop  offset="0.1717" style="stop-color:#D4E1F4"/>
		<stop  offset="0.2" style="stop-color:#D4E1F4"/>
		<stop  offset="0.2001" style="stop-color:#DAE4F4"/>
		<stop  offset="0.2007" style="stop-color:#EBEBF4"/>
		<stop  offset="0.2014" style="stop-color:#F6F1F4"/>
		<stop  offset="0.2023" style="stop-color:#FDF4F4"/>
		<stop  offset="0.205" style="stop-color:#FFF5F4"/>
		<stop  offset="0.2522" style="stop-color:#FFF5F4"/>
		<stop  offset="0.26" style="stop-color:#FFF5F4"/>
		<stop  offset="0.26" style="stop-color:#D4E1F4"/>
		<stop  offset="0.3974" style="stop-color:#D4E1F4"/>
		<stop  offset="0.42" style="stop-color:#D4E1F4"/>
		<stop  offset="0.4201" style="stop-color:#DAE4F4"/>
		<stop  offset="0.4207" style="stop-color:#EBEBF4"/>
		<stop  offset="0.4214" style="stop-color:#F6F1F4"/>
		<stop  offset="0.4223" style="stop-color:#FDF4F4"/>
		<stop  offset="0.425" style="stop-color:#FFF5F4"/>
		<stop  offset="0.4894" style="stop-color:#FFF5F4"/>
		<stop  offset="0.5" style="stop-color:#FFF5F4"/>
		<stop  offset="0.5" style="stop-color:#F9F2F4"/>
		<stop  offset="0.5001" style="stop-color:#E8EBF4"/>
		<stop  offset="0.5003" style="stop-color:#DDE5F4"/>
		<stop  offset="0.5005" style="stop-color:#D6E2F4"/>
		<stop  offset="0.501" style="stop-color:#D4E1F4"/>
		<stop  offset="0.7062" style="stop-color:#D4E1F4"/>
		<stop  offset="0.74" style="stop-color:#D4E1F4"/>
		<stop  offset="0.741" style="stop-color:#FFF5F4"/>
		<stop  offset="0.8346" style="stop-color:#FFF5F4"/>
		<stop  offset="0.85" style="stop-color:#FFF5F4"/>
		<stop  offset="0.851" style="stop-color:#D4E1F4"/>
	</linearGradient>
	<polygon style="fill:url(#SVGID_1_);" points="354.133,51.2 354.133,76.8 157.867,76.8 157.867,51.2 81.067,51.2 81.067,477.867 
		430.933,477.867 430.933,51.2 	"/>
	<g>
		<path style="fill:#428DFF;" d="M294.4,59.733h-76.8c-2.264,0.001-4.435-0.897-6.035-2.498s-2.499-3.772-2.498-6.035V8.533
			c-0.001-2.264,0.897-4.435,2.498-6.035S215.336-0.001,217.6,0h76.8c2.264-0.001,4.435,0.897,6.035,2.498s2.499,3.772,2.498,6.035
			V51.2c0.001,2.264-0.897,4.435-2.498,6.035S296.664,59.735,294.4,59.733z M226.133,42.667h59.733v-25.6h-59.733V42.667z"/>
		<path style="fill:#428DFF;" d="M430.933,486.4H81.067c-2.264,0.001-4.435-0.897-6.035-2.498c-1.601-1.601-2.499-3.772-2.498-6.035
			V51.2c-0.001-2.264,0.897-4.435,2.498-6.035c1.601-1.601,3.772-2.499,6.035-2.498h76.8c2.264-0.001,4.435,0.897,6.035,2.498
			s2.499,3.772,2.498,6.035v17.067h179.2V51.2c-0.001-2.264,0.897-4.435,2.498-6.035c1.601-1.601,3.772-2.499,6.035-2.498h76.8
			c2.264-0.001,4.435,0.897,6.035,2.498c1.601,1.601,2.499,3.772,2.498,6.035v426.667c0.001,2.264-0.897,4.435-2.498,6.035
			C435.368,485.503,433.197,486.401,430.933,486.4z M89.6,469.333h332.8v-409.6h-59.733V76.8c0.001,2.264-0.897,4.435-2.498,6.035
			c-1.601,1.601-3.772,2.499-6.035,2.498H157.867c-2.264,0.001-4.435-0.897-6.035-2.498c-1.601-1.601-2.499-3.772-2.498-6.035
			V59.733H89.6V469.333z"/>
		<path style="fill:#428DFF;" d="M354.133,85.333H157.867c-2.264,0.001-4.435-0.897-6.035-2.498
			c-1.601-1.601-2.499-3.772-2.498-6.035V25.6c-0.001-2.264,0.897-4.435,2.498-6.035c1.601-1.601,3.772-2.499,6.035-2.498H217.6
			c2.264-0.001,4.435,0.897,6.035,2.498s2.499,3.772,2.498,6.035v17.067h59.733V25.6c-0.001-2.264,0.897-4.435,2.498-6.035
			s3.772-2.499,6.035-2.498h59.733c2.264-0.001,4.435,0.897,6.035,2.498c1.601,1.601,2.499,3.772,2.498,6.035v51.2
			c0.001,2.264-0.897,4.435-2.498,6.035C358.568,84.436,356.397,85.335,354.133,85.333L354.133,85.333z M166.4,68.267h179.2V34.133
			h-42.667V51.2c0.001,2.264-0.897,4.435-2.498,6.035s-3.772,2.499-6.035,2.498h-76.8c-2.264,0.001-4.435-0.897-6.035-2.498
			s-2.499-3.772-2.498-6.035V34.133H166.4V68.267z"/>
		<path style="fill:#428DFF;" d="M456.533,512H55.467c-2.264,0.001-4.435-0.897-6.035-2.498c-1.601-1.601-2.499-3.772-2.498-6.035
			V25.6c-0.001-2.264,0.897-4.435,2.498-6.035c1.601-1.601,3.772-2.499,6.035-2.498H217.6c2.264-0.001,4.435,0.897,6.035,2.498
			s2.499,3.772,2.498,6.035v17.067h59.733V25.6c-0.001-2.264,0.897-4.435,2.498-6.035s3.772-2.499,6.035-2.498h162.133
			c2.264-0.001,4.435,0.897,6.035,2.498c1.601,1.601,2.499,3.772,2.498,6.035v477.867c0.001,2.264-0.897,4.435-2.498,6.035
			C460.968,511.103,458.797,512.001,456.533,512z M64,494.933h384v-460.8H302.933V51.2c0.001,2.264-0.897,4.435-2.498,6.035
			s-3.772,2.499-6.035,2.498h-76.8c-2.264,0.001-4.435-0.897-6.035-2.498s-2.499-3.772-2.498-6.035V34.133H64V494.933z"/>
		<path style="fill:#428DFF;" d="M217.6,153.6h-76.8c-4.713,0-8.533-3.821-8.533-8.533c0-4.713,3.821-8.533,8.533-8.533h76.8
			c4.713,0,8.533,3.821,8.533,8.533C226.133,149.779,222.313,153.6,217.6,153.6z"/>
		<path style="fill:#428DFF;" d="M183.467,221.867H140.8c-4.713,0-8.533-3.821-8.533-8.533s3.821-8.533,8.533-8.533h42.667
			c4.713,0,8.533,3.82,8.533,8.533S188.18,221.867,183.467,221.867z"/>
		<path style="fill:#428DFF;" d="M328.533,221.867H268.8c-4.713,0-8.533-3.821-8.533-8.533s3.82-8.533,8.533-8.533h59.733
			c4.713,0,8.533,3.82,8.533,8.533S333.246,221.867,328.533,221.867z"/>
		<path style="fill:#428DFF;" d="M226.133,221.867c-1.115-0.014-2.216-0.246-3.242-0.683c-1.055-0.391-2.015-1.002-2.817-1.792
			c-2.444-2.441-3.154-6.125-1.792-9.3c0.432-1.035,1.038-1.987,1.792-2.817c0.404-0.367,0.83-0.709,1.275-1.025
			c0.477-0.325,0.995-0.583,1.542-0.767c0.482-0.25,0.999-0.424,1.533-0.517c1.093-0.258,2.232-0.258,3.325,0
			c0.567,0.079,1.116,0.254,1.625,0.517c0.525,0.168,1.016,0.427,1.45,0.767c0.489,0.294,0.948,0.638,1.367,1.025
			c0.754,0.829,1.36,1.782,1.792,2.817c0.438,1.025,0.67,2.127,0.683,3.242c-0.019,2.262-0.905,4.43-2.475,6.059
			c-0.831,0.752-1.783,1.358-2.817,1.792C228.35,221.621,227.248,221.853,226.133,221.867L226.133,221.867z"/>
		<path style="fill:#428DFF;" d="M371.2,221.867c-1.116-0.004-2.219-0.237-3.242-0.683c-1.045-0.412-2.001-1.02-2.817-1.792
			c-2.444-2.441-3.154-6.125-1.792-9.3c0.432-1.035,1.038-1.987,1.792-2.817c3.421-3.158,8.695-3.158,12.117,0
			c0.754,0.829,1.36,1.782,1.792,2.817c1.362,3.175,0.653,6.859-1.792,9.301c-0.831,0.752-1.783,1.358-2.817,1.792
			C373.416,221.621,372.315,221.853,371.2,221.867z"/>
		<path style="fill:#428DFF;" d="M243.2,290.133h-59.733c-4.713,0-8.533-3.821-8.533-8.533s3.821-8.533,8.533-8.533H243.2
			c4.713,0,8.533,3.82,8.533,8.533S247.913,290.133,243.2,290.133z"/>
		<path style="fill:#428DFF;" d="M140.8,290.133c-1.115-0.014-2.216-0.246-3.242-0.683c-1.035-0.432-1.987-1.038-2.817-1.792
			c-1.606-1.604-2.498-3.788-2.475-6.058c-0.032-1.119,0.202-2.23,0.683-3.242c0.432-1.035,1.038-1.987,1.792-2.817
			c0.816-0.772,1.772-1.38,2.817-1.792c3.15-1.34,6.798-0.631,9.217,1.792c0.806,0.805,1.444,1.762,1.875,2.817
			c0.477,1.013,0.711,2.123,0.683,3.242c0.027,2.287-0.9,4.483-2.558,6.059C145.188,289.24,143.04,290.129,140.8,290.133z"/>
		<path style="fill:#428DFF;" d="M163.328,343.917c-27.084,14.095-31.787,44.573-32.717,72.219l29.135-12.068l-23.945-20.059
			c-16.732-14.017-41.001,10.007-24.136,24.136l23.945,20.059c4.958,4.653,12.181,5.971,18.462,3.369s10.457-8.642,10.672-15.437
			c0.514-15.274,0.322-34.685,15.811-42.746C200.048,363.246,182.809,333.779,163.328,343.917L163.328,343.917z"/>
		<path style="fill:#428DFF;" d="M168.691,399.146c5.826,11.622,17.209,19.441,30.148,20.708c5.656,0.556,11.363-0.209,16.673-2.233
			c3.762-1.228,7.322-3.003,10.566-5.27c5.062-4.339,2.721,1.638-0.859-4.766c10.72,19.176,40.214,1.986,29.473-17.228
			c-6.657-11.226-19.972-16.647-32.577-13.264c-7.445,1.671-19.219,14.418-23.95,4.827
			C188.448,362.218,158.998,379.494,168.691,399.146L168.691,399.146z"/>
		<path style="fill:#428DFF;" d="M285.867,512c-3.451-0.001-6.562-2.08-7.882-5.268c-1.32-3.188-0.591-6.858,1.849-9.298
			L450.5,326.767c3.341-3.281,8.701-3.256,12.012,0.054c3.311,3.311,3.335,8.671,0.054,12.012L291.9,509.5
			C290.302,511.103,288.13,512.003,285.867,512L285.867,512z"/>
	</g>
</g>
<g>
</g>
<g>
</g>
<g>
</g>
<g>
</g>
<g>
</g>
<g>
</g>
<g>
</g>
<g>
</g>
<g>
</g>
<g>
</g>
<g>
</g>
<g>
</g>
<g>
</g>
<g>
</g>
<g>
</g>
</svg>
